<?xml version="1.0" encoding="utf-8"?>
<!-- Generator: Adobe Illustrator 24.0.3, SVG Export Plug-In . SVG Version: 6.00 Build 0)  -->
<svg version="1.1" id="Layer_1" xmlns="http://www.w3.org/2000/svg" xmlns:xlink="http://www.w3.org/1999/xlink" x="0px" y="0px"
	 viewBox="0 0 130.3 130.4" style="enable-background:new 0 0 130.3 130.4;" xml:space="preserve">
<style type="text/css">
	.st0{fill:#FF0000;}
	.st1{fill:#FFFFFF;}
</style>
<path class="st0" d="M65.1,0c0,0,45.9,29.6,65.5,65.4c-2.9,4.4-29.4,45.3-65.4,65c-6.5-4.2-43.1-27.7-65.5-65.2
	C4.8,57.6,29.3,20,65.1,0z"/>
<g>
	<g>
		<path class="st1" d="M29.8,66.2c3.2-3.7,6.2-7.3,8.9-10.7v-0.2c-1.5-1-3.2-2.5-4.9-4.6c-1.7-2-2.6-4.6-2.6-7.7
			c0-2.4,0.6-4.5,1.7-6.2c1.1-1.8,2.7-3.1,4.6-4c1.5-0.7,3.1-1.2,4.7-1.4c1.6-0.2,3.3-0.3,5-0.3c1.5,0,3.1,0,4.9,0.1
			c1.8,0,2.8,0.1,3,0.1c-0.1,7.7-0.1,13.1-0.1,16c0,2.9,0,4.9,0,6c0,5.6,0,10.2,0.1,14c0,3.7,0.1,6.3,0.1,7.6h-4.9
			c0-1.3,0-4.5,0.1-9.6c0-5.1,0-9.1,0-12.1c0-1.3,0-3.5,0-6.7c0-3.1,0-6.8-0.1-10.9c-0.2,0-0.5,0-0.8,0c-0.4,0-0.9,0-1.6,0
			c-1.1,0-2.2,0-3.5,0.1c-1.3,0.1-2.5,0.4-3.6,0.9c-1.4,0.6-2.5,1.4-3.3,2.7s-1.2,2.6-1.2,4.3c0,1.8,0.3,3.3,0.8,4.4
			c0.5,1.1,1.2,2,1.9,2.7c0.8,0.8,1.9,1.6,3.1,2.4c1.2,0.7,2.2,1.2,3,1.4l0,0.3c-5.5,6.9-9.6,12-12.2,15.3c-2.6,3.3-4.2,5.1-4.6,5.6
			l-3.7-3.4C24.9,71.9,26.6,69.9,29.8,66.2z"/>
	</g>
	<g>
		<g>
			<path class="st1" d="M75.3,74.7c-0.2,0-1.5,0-3.9,0c-2.4,0-5.5,0-9.1,0c-2.5,0-4.8,0-6.9,0c-2.1,0-3.8,0-5.3,0
				c0-1.3,0.1-4,0.1-8.2c0-4.2,0-8.5,0-13c0-2.4,0-5.7,0-9.7s-0.1-8.2-0.1-12.5c1.4,0,3.2,0,5.3,0s4.3,0,6.5,0c3.8,0,6.8,0,9.2,0
				c2.4,0,3.7,0,3.9,0v4.5c-0.2,0-1.4,0-3.7,0c-2.3,0-5.1,0-8.5,0c-1.5,0-2.9,0-4.4,0c-1.4,0-2.5,0-3.4,0c0,2.4,0,4.9-0.1,7.3
				c0,2.4-0.1,4.7-0.1,6.9c0.9,0,1.9,0,3.2,0c1.2,0,2.3,0,3.2,0c3.5,0,6.6,0,9.3,0c2.7,0,4.2,0,4.4,0v4.5c-0.2,0-1.8,0-4.9,0
				c-3.1,0-5.9,0-8.5,0c-0.9,0-2.1,0-3.4,0c-1.3,0-2.4,0-3.3,0c0,4.1,0,7.3,0,9.8c0,2.4,0,4.4,0.1,6c1.2,0,2.6,0,4.2,0
				c1.7,0,3.4,0,5.4,0c2.9,0,5.4,0,7.4,0c2,0,3.1,0,3.4,0V74.7z"/>
		</g>
	</g>
	<g>
		<g>
			<path class="st1" d="M105.7,53.3c0,3.8-0.9,7.2-2.6,10s-3.9,5.2-6.6,7c-2.4,1.5-5,2.7-7.9,3.5c-2.9,0.8-6.2,1.2-9.8,1.2
				c-1.4,0-2.7,0-4.1-0.1c-1.3,0-2.1-0.1-2.2-0.1c0-0.1,0-2.6,0.1-7.5c0-4.9,0.1-9.5,0.1-13.9c0-2.3,0-5.3,0-8.9
				c0-3.6-0.1-8.1-0.1-13.3c0.2,0,1.1,0,2.7,0c1.6,0,2.5,0,2.6,0c4.1,0,7.7,0.4,10.9,1.2c3.2,0.8,6,2.1,8.5,3.8c2.9,2,5,4.4,6.4,7.3
				C105,46.3,105.7,49.6,105.7,53.3z M100.6,53.2c0-2.8-0.6-5.4-1.7-7.7c-1.1-2.3-2.8-4.3-5.2-5.9c-2.2-1.5-4.7-2.6-7.4-3.2
				s-5.2-0.9-7.4-0.9c-0.3,0-0.6,0-0.9,0s-0.5,0-0.6,0c0,3.4-0.1,6.3-0.1,8.5c0,2.3,0,4.1,0,5.4c0,1,0,3.2,0,6.7c0,3.5,0,8.4,0,14.6
				c0.3,0,0.5,0,0.8,0c0.2,0,0.5,0,0.8,0c2.6,0,5.1-0.3,7.7-1c2.6-0.7,4.8-1.6,6.5-2.7c2.2-1.5,4.1-3.3,5.4-5.6
				C100,59.1,100.6,56.4,100.6,53.2z"/>
		</g>
	</g>
</g>
<g>
	<g>
		<path class="st1" d="M63.1,106.7c-0.1,0-0.9,0-2.3,0c-1.4,0-3.1,0-5.3,0c-1.4,0-2.7,0-4,0c-1.3,0-2.3,0-3.2,0c0-2.1,0-4.3,0.1-6.5
			s0-4.4,0-6.5c0-3.5,0-6.3,0-8.1c0-1.9,0-3.2-0.1-3.9h3c0,1.6,0,3.5-0.1,5.6c0,2.1,0,3.8,0,5.2c0,3.3,0,6,0,8.2c0,2.2,0,3.4,0,3.5
			c0.5,0,1.1,0,1.8,0c0.7,0,1.3,0,1.9,0c2.1,0,4,0,5.6,0c1.6,0,2.4,0,2.5,0V106.7z"/>
	</g>
	<g>
		<g>
			<path class="st1" d="M63.3,84.3h-3.2v-3.1h3.2V84.3z M63.2,106.1h-2.8c0-0.2,0-1.4,0-3.6c0-2.2,0-4,0-5.4c0-1.2,0-2.6,0-4.1
				s0-3.2-0.1-5.2h2.8c0,1.7,0,3.4-0.1,4.9c0,1.5,0,2.9,0,4.1c0,2.8,0,5.1,0,6.8C63.1,105.2,63.2,106.1,63.2,106.1z"/>
		</g>
	</g>
	<g>
		<g>
			<path class="st1" d="M74.1,106.7h-2.7c0-0.3,0-1.5,0-3.5c0-2,0-3.2,0-3.6c0-0.6,0-1.6,0-2.9c0-1.3,0-2.2,0-2.8
				c0-1.4-0.3-2.5-0.8-3.1c-0.5-0.6-1.3-0.9-2.4-0.9c-0.7,0-1.6,0.2-2.6,0.7c-1,0.4-2.1,1-3.1,1.7c0,0.1,0,0.9,0,2.2
				c0,1.4,0,2.6,0,3.7c0,1.5,0,3.2,0,5.2c0,2.1,0,3.1,0,3.2H60c0-0.1,0-0.9,0-2.3c0-1.4,0-3.6,0-6.4c0-1.3,0-2.8,0-4.6
				c0-1.8,0-3.6-0.1-5.6h2.7l0,2.2l0,0c1.6-1,2.9-1.7,4-2.1c1.1-0.4,2-0.6,2.7-0.6c1.5,0,2.6,0.5,3.5,1.5c0.9,1,1.3,2.4,1.3,4.1
				c0,1.6,0,2.9,0,4.1c0,1.1,0,2.1,0,2.8c0,1.1,0,2.6,0,4.3C74.1,105.7,74.1,106.6,74.1,106.7z"/>
		</g>
	</g>
	<g>
		<g>
			<path class="st1" d="M90.7,97H79.1c0,1.3,0.3,2.4,0.7,3.5c0.5,1.1,1.2,1.9,2.2,2.6c0.6,0.4,1.3,0.8,2.1,1
				c0.8,0.2,1.7,0.3,2.9,0.3c0.6,0,1.2,0,1.7-0.1c0.5,0,0.8-0.1,0.9-0.1l-0.3,2.4c-0.1,0-0.4,0-0.9,0.1s-1.1,0-1.7,0
				c-1.7,0-3.2-0.2-4.5-0.7c-1.3-0.5-2.3-1.2-3.1-2c-0.7-0.7-1.3-1.7-1.8-2.8c-0.5-1.1-0.7-2.4-0.7-3.8c0-1.4,0.2-2.6,0.5-3.7
				c0.4-1.1,0.9-2.1,1.6-3.1c0.6-0.8,1.4-1.4,2.4-1.9c0.9-0.4,1.9-0.7,2.9-0.7c1,0,1.9,0.2,2.7,0.5c0.8,0.3,1.4,0.8,2,1.5
				c0.6,0.8,1.1,1.7,1.4,2.8S90.7,95.5,90.7,97z M88.2,95c-0.2-1.5-0.6-2.6-1.4-3.5c-0.7-0.8-1.7-1.3-2.9-1.3c-1.2,0-2.2,0.4-3,1.3
				c-0.8,0.9-1.4,2-1.7,3.5H88.2z"/>
		</g>
	</g>
</g>
</svg>
