<?xml version="1.0" encoding="utf-8"?>
<!-- Generator: Adobe Illustrator 24.0.3, SVG Export Plug-In . SVG Version: 6.00 Build 0)  -->
<svg version="1.1" id="Layer_1" xmlns="http://www.w3.org/2000/svg" xmlns:xlink="http://www.w3.org/1999/xlink" x="0px" y="0px"
	 viewBox="0 0 130.3 130.4" style="enable-background:new 0 0 130.3 130.4;" xml:space="preserve">
<style type="text/css">
	.st0{fill:#FF0000;}
	.st1{fill:#FFFFFF;}
</style>
<path class="st0" d="M61.8,39.5c0,0,17.3,11.2,24.7,24.7c-1.1,1.7-11.1,17.1-24.7,24.5c-2.5-1.6-16.3-10.5-24.7-24.6
	C39,61.2,48.2,47.1,61.8,39.5z"/>
<g>
	<g>
		<path class="st1" d="M48.4,64.5c1.2-1.4,2.3-2.8,3.4-4v-0.1c-0.6-0.4-1.2-0.9-1.8-1.7c-0.6-0.8-1-1.7-1-2.9c0-0.9,0.2-1.7,0.6-2.3
			c0.4-0.7,1-1.2,1.7-1.5c0.6-0.3,1.2-0.5,1.8-0.5c0.6-0.1,1.2-0.1,1.9-0.1c0.6,0,1.2,0,1.8,0c0.7,0,1.1,0,1.1,0c0,2.9,0,4.9,0,6
			c0,1.1,0,1.8,0,2.3c0,2.1,0,3.8,0,5.3c0,1.4,0,2.4,0,2.9h-1.8c0-0.5,0-1.7,0-3.6c0-1.9,0-3.4,0-4.6c0-0.5,0-1.3,0-2.5
			c0-1.2,0-2.6,0-4.1c-0.1,0-0.2,0-0.3,0c-0.2,0-0.3,0-0.6,0c-0.4,0-0.8,0-1.3,0c-0.5,0-0.9,0.2-1.4,0.3c-0.5,0.2-0.9,0.5-1.2,1
			c-0.3,0.5-0.5,1-0.5,1.6c0,0.7,0.1,1.2,0.3,1.7c0.2,0.4,0.5,0.8,0.7,1c0.3,0.3,0.7,0.6,1.2,0.9c0.5,0.3,0.8,0.5,1.1,0.5v0.1
			c-2.1,2.6-3.6,4.5-4.6,5.8s-1.6,1.9-1.7,2.1l-1.4-1.3C46.6,66.6,47.2,65.9,48.4,64.5z"/>
	</g>
	<g>
		<g>
			<path class="st1" d="M65.6,67.7c-0.1,0-0.6,0-1.5,0c-0.9,0-2.1,0-3.4,0c-0.9,0-1.8,0-2.6,0c-0.8,0-1.4,0-2,0c0-0.5,0-1.5,0-3.1
				c0-1.6,0-3.2,0-4.9c0-0.9,0-2.2,0-3.7c0-1.5,0-3.1,0-4.7c0.5,0,1.2,0,2,0c0.8,0,1.6,0,2.5,0c1.4,0,2.6,0,3.5,0s1.4,0,1.5,0V53
				c-0.1,0-0.5,0-1.4,0c-0.9,0-1.9,0-3.2,0c-0.6,0-1.1,0-1.7,0c-0.5,0-0.9,0-1.3,0c0,0.9,0,1.8,0,2.8c0,0.9,0,1.8,0,2.6
				c0.3,0,0.7,0,1.2,0c0.5,0,0.9,0,1.2,0c1.3,0,2.5,0,3.5,0c1,0,1.6,0,1.7,0v1.7c-0.1,0-0.7,0-1.8,0c-1.2,0-2.2,0-3.2,0
				c-0.3,0-0.8,0-1.3,0s-0.9,0-1.2,0c0,1.5,0,2.8,0,3.7c0,0.9,0,1.7,0,2.3c0.5,0,1,0,1.6,0c0.6,0,1.3,0,2,0c1.1,0,2,0,2.8,0
				c0.8,0,1.2,0,1.3,0C65.6,66,65.6,67.7,65.6,67.7z"/>
		</g>
	</g>
	<g>
		<g>
			<path class="st1" d="M77.1,59.6c0,1.4-0.3,2.7-1,3.8c-0.6,1.1-1.5,2-2.5,2.6c-0.9,0.6-1.9,1-3,1.3s-2.3,0.5-3.7,0.5
				c-0.5,0-1,0-1.5,0c-0.5,0-0.8,0-0.8,0c0,0,0-1,0-2.8c0-1.8,0-3.6,0-5.2c0-0.9,0-2,0-3.4s0-3.1,0-5c0.1,0,0.4,0,1,0s0.9,0,1,0
				c1.5,0,2.9,0.2,4.1,0.5c1.2,0.3,2.3,0.8,3.2,1.4c1.1,0.8,1.9,1.7,2.4,2.8C76.8,57,77.1,58.2,77.1,59.6z M75.1,59.6
				c0-1.1-0.2-2-0.6-2.9c-0.4-0.9-1.1-1.6-2-2.2c-0.8-0.6-1.8-1-2.8-1.2c-1-0.2-2-0.3-2.8-0.3c-0.1,0-0.2,0-0.3,0s-0.2,0-0.2,0
				c0,1.3,0,2.4,0,3.2c0,0.9,0,1.5,0,2c0,0.4,0,1.2,0,2.5s0,3.2,0,5.5c0.1,0,0.2,0,0.3,0c0.1,0,0.2,0,0.3,0c1,0,1.9-0.1,2.9-0.4
				c1-0.3,1.8-0.6,2.5-1c0.8-0.6,1.5-1.2,2-2.1C74.9,61.8,75.1,60.8,75.1,59.6z"/>
		</g>
	</g>
</g>
<g>
	<g>
		<path class="st1" d="M61,79.8c0,0-0.3,0-0.9,0s-1.2,0-2,0c-0.5,0-1,0-1.5,0c-0.5,0-0.9,0-1.2,0c0-0.8,0-1.6,0-2.5
			c0-0.8,0-1.7,0-2.5c0-1.3,0-2.4,0-3.1c0-0.7,0-1.2,0-1.5h1.1c0,0.6,0,1.3,0,2.1c0,0.8,0,1.4,0,2c0,1.2,0,2.3,0,3.1s0,1.3,0,1.3
			c0.2,0,0.4,0,0.7,0c0.3,0,0.5,0,0.7,0c0.8,0,1.5,0,2.1,0s0.9,0,0.9,0L61,79.8L61,79.8z"/>
	</g>
	<g>
		<g>
			<path class="st1" d="M61.1,71.3h-1.2v-1.2h1.2V71.3z M61,79.5H60c0-0.1,0-0.5,0-1.4s0-1.5,0-2c0-0.5,0-1,0-1.5s0-1.2,0-2H61
				c0,0.6,0,1.3,0,1.8c0,0.6,0,1.1,0,1.5c0,1.1,0,1.9,0,2.6C61,79.2,61,79.5,61,79.5z"/>
		</g>
	</g>
	<g>
		<g>
			<path class="st1" d="M65.1,79.8h-1c0-0.1,0-0.6,0-1.3c0-0.8,0-1.2,0-1.4c0-0.2,0-0.6,0-1.1c0-0.5,0-0.8,0-1.1
				c0-0.5-0.1-0.9-0.3-1.2s-0.5-0.3-0.9-0.3c-0.3,0-0.6,0.1-1,0.3c-0.4,0.2-0.8,0.4-1.2,0.6c0,0,0,0.3,0,0.8c0,0.5,0,1,0,1.4
				c0,0.6,0,1.2,0,2c0,0.8,0,1.2,0,1.2h-0.9c0,0,0-0.3,0-0.9c0-0.5,0-1.4,0-2.4c0-0.5,0-1.1,0-1.7c0-0.7,0-1.4,0-2.1h1v0.8l0,0
				c0.6-0.4,1.1-0.6,1.5-0.8c0.4-0.2,0.8-0.2,1-0.2c0.6,0,1,0.2,1.3,0.6c0.3,0.4,0.5,0.9,0.5,1.5c0,0.6,0,1.1,0,1.5
				c0,0.4,0,0.8,0,1.1c0,0.4,0,1,0,1.6C65.1,79.4,65.1,79.7,65.1,79.8z"/>
		</g>
	</g>
	<g>
		<g>
			<path class="st1" d="M71.4,76.1H67c0,0.5,0.1,0.9,0.3,1.3c0.2,0.4,0.5,0.7,0.8,1c0.2,0.2,0.5,0.3,0.8,0.4
				c0.3,0.1,0.6,0.1,1.1,0.1c0.2,0,0.5,0,0.6,0c0.2,0,0.3,0,0.3,0l-0.1,0.9c0,0-0.2,0-0.3,0c-0.2,0-0.4,0-0.6,0
				c-0.6,0-1.2-0.1-1.7-0.3c-0.5-0.2-0.9-0.5-1.2-0.8c-0.3-0.3-0.5-0.6-0.7-1.1c-0.2-0.4-0.3-0.9-0.3-1.4c0-0.5,0.1-1,0.2-1.4
				c0.2-0.4,0.3-0.8,0.6-1.2c0.2-0.3,0.5-0.5,0.9-0.7c0.3-0.2,0.7-0.3,1.1-0.3c0.4,0,0.7,0.1,1,0.2c0.3,0.1,0.5,0.3,0.8,0.6
				c0.2,0.3,0.4,0.6,0.5,1.1S71.4,75.5,71.4,76.1z M70.5,75.3c-0.1-0.6-0.2-1-0.5-1.3c-0.3-0.3-0.6-0.5-1.1-0.5
				c-0.5,0-0.8,0.2-1.1,0.5s-0.5,0.8-0.6,1.3H70.5z"/>
		</g>
	</g>
</g>
</svg>
